<?xml version="1.0" encoding="UTF-8"?> <svg xmlns="http://www.w3.org/2000/svg" width="110" height="39" viewBox="0 0 110 39" fill="none"><path d="M7.97619 7.97619C7.97619 3.57085 11.547 0 15.9524 0C20.3577 0 23.9286 3.57085 23.9286 7.97619H7.97619ZM7.97619 23.9286C7.97619 28.3339 11.547 31.9048 15.9524 31.9048C20.3577 31.9048 23.9286 28.3339 23.9286 23.9286H7.97619ZM15.1955 15.9136C11.1395 15.5254 7.97619 12.1292 7.97619 7.97619C3.57085 7.97619 0 11.547 0 15.9524C0 20.3577 3.57085 23.9286 7.97619 23.9286C7.97619 19.7755 11.1395 16.3793 15.1955 15.9912V15.9136ZM16.7092 15.9912C20.7653 16.3793 23.9286 19.7755 23.9286 23.9286C28.3339 23.9286 31.9048 20.3577 31.9048 15.9524C31.9048 11.547 28.3339 7.97619 23.9286 7.97619C23.9286 12.1292 20.7653 15.5254 16.7092 15.9136V15.9912Z" fill="white"></path><path d="M39.0476 38.4154C39.3215 37.0885 39.6736 35.8007 40.104 34.5323C40.5343 33.2835 41.0625 31.9762 41.7276 30.6493H42.784C43.4296 32.0152 43.9773 33.3225 44.4077 34.5909C44.838 35.8592 45.1706 37.1276 45.4445 38.4154H44.4272C44.2707 37.6934 44.1142 36.991 43.9382 36.3275H40.5539C40.3778 36.991 40.2018 37.6934 40.0453 38.4154H39.0672H39.0476ZM40.7691 35.508H43.6839C43.4882 34.8446 43.2731 34.2006 43.0187 33.5567C42.784 32.9128 42.5101 32.2493 42.2167 31.5859C41.9233 32.2493 41.6494 32.9128 41.4146 33.5567C41.1799 34.2006 40.9647 34.8641 40.7691 35.508ZM46.5595 38.4154V34.2787L46.4226 33.2055L47.2442 33.0689L47.4203 33.8884C47.7333 33.264 48.3006 32.9713 49.1417 32.9713C49.9829 32.9713 50.2372 33.1469 50.5502 33.5177C50.8828 33.8689 51.0393 34.3958 51.0393 35.0787V38.4349H50.1003V35.1958C50.1003 34.708 50.0025 34.3567 49.8069 34.1421C49.6112 33.9275 49.3178 33.8104 48.907 33.8104C48.4962 33.8104 48.1245 33.9274 47.8702 34.1811C47.6159 34.4348 47.4985 34.7665 47.4985 35.1958V38.4349H46.5595V38.4154ZM52.9759 32.1127C52.5847 32.1127 52.4086 31.8981 52.4086 31.4883C52.4086 31.0786 52.6043 30.8639 52.9759 30.8639C53.3476 30.8639 53.5433 31.0786 53.5433 31.4883C53.5433 31.8981 53.3476 32.1127 52.9759 32.1127ZM52.5065 38.4154V33.1079H53.4454V38.4154H52.5065ZM55.0104 38.4154V34.2787L54.8735 33.2055L55.6951 33.0689L55.8712 33.8884C56.1646 33.264 56.7123 32.9713 57.5144 32.9713C58.3165 32.9713 58.2382 33.0494 58.5316 33.225C58.8251 33.4006 59.0207 33.6543 59.1576 34.0055C59.2946 33.6738 59.5098 33.4201 59.7836 33.225C60.0575 33.0494 60.4096 32.9518 60.84 32.9518C61.2704 32.9518 61.8963 33.1274 62.2289 33.4787C62.5615 33.8299 62.7375 34.3567 62.7375 35.0397V38.4154H61.7985V35.1177C61.7985 34.6494 61.7007 34.3177 61.5051 34.1031C61.3095 33.8884 61.016 33.7909 60.6639 33.7909C60.3118 33.7909 59.9597 33.9274 59.7249 34.1811C59.4902 34.4348 59.3728 34.8055 59.3728 35.2934V38.4349H58.4338V35.1373C58.4338 34.6689 58.336 34.3177 58.1208 34.1226C57.9056 33.9275 57.6318 33.8104 57.2601 33.8104C56.8884 33.8104 56.5363 33.9275 56.3211 34.1616C56.1059 34.3958 56.0081 34.7275 56.0081 35.1177V38.4349H55.0691L55.0104 38.4154ZM65.4176 38.552C64.9089 38.552 64.4981 38.3959 64.2047 38.1032C63.8917 37.8105 63.7548 37.4203 63.7548 36.952C63.7548 36.4836 64.0482 35.7812 64.6155 35.4299C65.1828 35.0787 66.0044 34.8836 67.0803 34.8641C67.0608 34.4933 66.9434 34.2201 66.7674 34.025C66.5913 33.8494 66.2783 33.7518 65.8675 33.7518C65.4567 33.7518 64.8698 33.8884 64.4199 34.1811L64.0873 33.5372C64.6155 33.1469 65.2415 32.9713 66.0044 32.9713C67.3542 32.9713 68.0193 33.6348 68.0193 34.9811V37.2446L68.1563 38.3569L67.3347 38.4935L67.1586 37.6544C67.0021 37.9471 66.7674 38.1813 66.4739 38.3374C66.1805 38.4935 65.8284 38.5715 65.4371 38.5715L65.4176 38.552ZM64.6937 36.8739C64.6937 37.1471 64.772 37.3617 64.9481 37.5178C65.1241 37.6739 65.3589 37.752 65.6719 37.752C65.9849 37.752 66.4152 37.6349 66.6695 37.3812C66.9238 37.1276 67.0608 36.8154 67.0608 36.4251V35.508C66.2783 35.5275 65.6914 35.6641 65.3002 35.8787C64.8894 36.1129 64.6937 36.4446 64.6937 36.8544V36.8739ZM69.4669 38.4154V30.6688H70.4059V38.4154H69.4669ZM74.3771 38.4154V30.6688H75.3552V34.025H79.0916V30.6688H80.0697V38.4154H79.0916V34.8836H75.3552V38.4154H74.3771ZM84.0604 38.5715C83.2584 38.5715 82.6324 38.3374 82.1824 37.8495C81.7325 37.3812 81.5173 36.6593 81.5173 35.7226C81.5173 34.786 81.7129 34.1421 82.1237 33.6738C82.5345 33.186 83.1214 32.9518 83.8843 32.9518C84.6473 32.9518 85.1363 33.1469 85.508 33.5567C85.8797 33.9665 86.0753 34.5714 86.0753 35.3714V36.0739H82.4759C82.515 36.5812 82.6715 36.9715 82.9258 37.3032C83.1801 37.6154 83.6105 37.7715 84.1973 37.7715C84.7842 37.7715 84.7646 37.7325 84.9994 37.6349C85.2341 37.5569 85.4493 37.4398 85.6449 37.3032L86.0166 37.9471C85.508 38.3569 84.8625 38.552 84.08 38.552L84.0604 38.5715ZM83.8843 33.7518C83.3953 33.7518 83.0627 33.9079 82.8475 34.2201C82.6324 34.5324 82.515 34.9031 82.4954 35.3714H85.1559C85.1559 35.0787 85.1168 34.8055 85.0385 34.5519C84.9603 34.3177 84.8233 34.1226 84.6473 33.9665C84.4712 33.8104 84.2169 33.7518 83.9039 33.7518H83.8843ZM88.4815 38.552C87.9729 38.552 87.5621 38.3959 87.2686 38.1032C86.9556 37.8105 86.8187 37.4203 86.8187 36.952C86.8187 36.4836 87.1121 35.7812 87.6794 35.4299C88.2467 35.0787 89.0683 34.8836 90.1443 34.8641C90.1247 34.4933 90.0073 34.2201 89.8313 34.025C89.6552 33.8494 89.3422 33.7518 88.9314 33.7518C88.5206 33.7518 87.9337 33.8884 87.4838 34.1811L87.1512 33.5372C87.6794 33.1469 88.3054 32.9713 89.0683 32.9713C90.4181 32.9713 91.0833 33.6348 91.0833 34.9811V37.2446L91.2202 38.3569L90.3986 38.4935L90.2225 37.6544C90.066 37.9471 89.8313 38.1813 89.5378 38.3374C89.2444 38.4935 88.8923 38.5715 88.501 38.5715L88.4815 38.552ZM87.7577 36.8739C87.7577 37.1471 87.8359 37.3617 88.012 37.5178C88.188 37.6739 88.4228 37.752 88.7358 37.752C89.0488 37.752 89.4791 37.6349 89.7335 37.3812C89.9878 37.1276 90.1247 36.8154 90.1247 36.4251V35.508C89.3422 35.5275 88.7553 35.6641 88.3641 35.8787C87.9533 36.1129 87.7577 36.4446 87.7577 36.8544V36.8739ZM92.5504 38.4154V30.6688H93.4894V38.4154H92.5504ZM97.0693 38.513C95.9543 38.513 95.387 37.8691 95.387 36.5812V33.8689H94.4088V33.2445L95.387 33.1274V31.6054H96.3259V33.1274H97.9496V33.8689H96.3259V36.5617C96.3259 37.3422 96.6194 37.7325 97.2062 37.7325C97.7931 37.7325 97.5193 37.713 97.6758 37.6739C97.8322 37.6349 97.9887 37.5764 98.1257 37.4983L98.3995 38.1813C98.0279 38.4154 97.5779 38.5325 97.0498 38.5325L97.0693 38.513ZM99.3581 38.4154V30.6688H100.297V33.8299C100.61 33.264 101.177 32.9713 101.979 32.9713C102.782 32.9713 103.055 33.1469 103.388 33.5177C103.701 33.8884 103.877 34.3958 103.877 35.0787V38.4349H102.938V35.1958C102.938 35.0982 102.938 34.9811 102.918 34.825C102.918 34.6689 102.86 34.5128 102.781 34.3567C102.703 34.2006 102.586 34.064 102.429 33.9665C102.273 33.8689 102.038 33.8104 101.745 33.8104C101.295 33.8104 100.943 33.9274 100.708 34.1811C100.454 34.4348 100.336 34.7665 100.336 35.1958V38.4349H99.3972L99.3581 38.4154ZM51.6848 7.81918H56.6928V23.9564H52.9759V13.1072L48.2223 23.9564L43.2144 13.0877V23.9564H39.7519V7.81918H44.7011L48.281 16.1707L51.6848 7.81918ZM58.5512 7.81918V23.9564H67.8824V21.2245H62.1702V17.1268H67.6477V14.356H62.1702V10.6486H67.8824V7.81918H58.5512ZM81.8303 15.8975C81.8303 21.9075 88.1098 26.7077 94.7414 23.5076V20.0538C89.6357 23.6246 85.2146 20.0538 85.2733 16.0536C85.332 13.3999 87.1121 10.8632 90.5746 10.6681C92.2766 10.5705 93.4307 10.9998 94.7414 12.2486V8.65823C89.9487 5.82886 81.8303 8.95093 81.8303 15.917V15.8975ZM96.2673 23.9759H99.7102V7.83869H96.2673V23.9759ZM104.033 15.3121L109.374 7.81918H105.344L100.062 15.2926L106.048 23.9564H110L104.033 15.2926V15.3121ZM78.27 17.1854L83.0236 23.9564H79.1503L73.1447 15.2731V23.9564H69.5061V7.81918H75.8834C79.6393 7.81918 81.1847 10.8242 81.1847 12.6779C81.1847 14.5316 80.4609 16.3658 78.27 17.1854ZM77.5462 12.912C77.5462 12.2681 77.4092 10.512 74.7292 10.512H73.1447V15.2146H75.1204C76.4898 15.2146 77.5462 14.1609 77.5462 12.912Z" fill="white"></path></svg> 